<svg width="22" height="22" viewBox="0 0 22 22" fill="none" xmlns="http://www.w3.org/2000/svg">
<path d="M1.83334 16.5V19.25C1.83334 19.8 2.20001 20.1666 2.75001 20.1666H6.41668V17.4166H9.16668V14.6666H11L12.2833 13.3833C13.5574 13.8271 14.9443 13.8254 16.2172 13.3785C17.4901 12.9316 18.5737 12.0659 19.2907 10.9231C20.0076 9.78028 20.3155 8.42797 20.164 7.08741C20.0125 5.74684 19.4105 4.49738 18.4566 3.54342C17.5026 2.58946 16.2531 1.98748 14.9126 1.83596C13.572 1.68444 12.2197 1.99235 11.0769 2.70932C9.93408 3.42628 9.0684 4.50986 8.62149 5.78279C8.17457 7.05572 8.17288 8.44263 8.61668 9.71665L1.83334 16.5Z" stroke="#0A9EF3" stroke-width="2" stroke-linecap="round" stroke-linejoin="round"/>
<path d="M15.125 7.33333C15.3781 7.33333 15.5833 7.12813 15.5833 6.875C15.5833 6.62187 15.3781 6.41667 15.125 6.41667C14.8719 6.41667 14.6667 6.62187 14.6667 6.875C14.6667 7.12813 14.8719 7.33333 15.125 7.33333Z" stroke="#0A9EF3" stroke-width="2" stroke-linecap="round" stroke-linejoin="round"/>
</svg>
