<svg width="125" height="48" viewBox="0 0 125 48" fill="none" xmlns="http://www.w3.org/2000/svg">
<rect width="125" height="48" rx="24" fill="#0E75F4"/>
<path d="M30.48 26.96C30.48 28.544 29.184 30.112 26.768 30.112C24.528 30.112 22.944 28.864 22.912 27.024H24.464C24.56 27.952 25.216 28.88 26.768 28.88C28.176 28.88 29.008 28.08 29.008 27.024C29.008 24.016 22.976 25.936 22.976 21.792C22.976 19.952 24.464 18.704 26.672 18.704C28.8 18.704 30.192 19.872 30.368 21.568H28.768C28.672 20.816 27.968 19.968 26.608 19.952C25.408 19.92 24.464 20.544 24.464 21.744C24.464 24.624 30.48 22.832 30.48 26.96ZM31.6626 30V21.232H33.1186V30H31.6626ZM32.4146 19.808C31.8546 19.808 31.4226 19.376 31.4226 18.816C31.4226 18.256 31.8546 17.824 32.4146 17.824C32.9426 17.824 33.3746 18.256 33.3746 18.816C33.3746 19.376 32.9426 19.808 32.4146 19.808ZM34.0961 25.584C34.0961 22.848 35.9041 21.088 38.2561 21.088C39.8561 21.088 41.0081 21.888 41.5201 22.832V21.232H42.9921V30.192C42.9921 32.608 41.3761 34.32 38.8001 34.32C36.4961 34.32 34.8481 33.152 34.5601 31.28H36.0001C36.3201 32.336 37.3601 33.056 38.8001 33.056C40.3521 33.056 41.5201 32.064 41.5201 30.192V28.352C40.9921 29.296 39.8561 30.144 38.2561 30.144C35.9041 30.144 34.0961 28.304 34.0961 25.584ZM41.5201 25.6C41.5201 23.568 40.1441 22.352 38.5441 22.352C36.9441 22.352 35.5841 23.52 35.5841 25.584C35.5841 27.648 36.9441 28.864 38.5441 28.864C40.1441 28.864 41.5201 27.664 41.5201 25.6ZM50.9086 30V25.04C50.9086 23.248 49.9326 22.336 48.4606 22.336C46.9726 22.336 45.9486 23.264 45.9486 25.152V30H44.4926V21.232H45.9486V22.48C46.5246 21.568 47.5806 21.072 48.7646 21.072C50.7966 21.072 52.3486 22.32 52.3486 24.832V30H50.9086ZM57.0726 30V21.232H58.5286V30H57.0726ZM57.8246 19.808C57.2646 19.808 56.8326 19.376 56.8326 18.816C56.8326 18.256 57.2646 17.824 57.8246 17.824C58.3526 17.824 58.7846 18.256 58.7846 18.816C58.7846 19.376 58.3526 19.808 57.8246 19.808ZM66.4661 30V25.04C66.4661 23.248 65.4901 22.336 64.0181 22.336C62.5301 22.336 61.5061 23.264 61.5061 25.152V30H60.0501V21.232H61.5061V22.48C62.0821 21.568 63.1381 21.072 64.3221 21.072C66.3541 21.072 67.9061 22.32 67.9061 24.832V30H66.4661Z" fill="white"/>
<path d="M84 24L98 24M98 24L91 17M98 24L91 31" stroke="white" stroke-width="2" stroke-linecap="round" stroke-linejoin="round"/>
</svg>
